<?xml version="1.0" encoding="utf-8" standalone="no"?>
<!DOCTYPE svg PUBLIC "-//W3C//DTD SVG 1.1//EN"
  "http://www.w3.org/Graphics/SVG/1.1/DTD/svg11.dtd">
<!-- Created with matplotlib (http://matplotlib.org/) -->
<svg height="325.986375pt" version="1.1" viewBox="0 0 487.241875 325.986375" width="487.241875pt" xmlns="http://www.w3.org/2000/svg" xmlns:xlink="http://www.w3.org/1999/xlink">
 <defs>
  <style type="text/css">
*{stroke-linecap:butt;stroke-linejoin:round;}
  </style>
 </defs>
 <g id="figure_1">
  <g id="patch_1">
   <path d="M 0 325.986375 
L 487.241875 325.986375 
L 487.241875 0 
L 0 0 
z
" style="fill:#ffffff;"/>
  </g>
  <g id="axes_1">
   <g id="patch_2">
    <path d="M 34.240625 288.430125 
L 391.360625 288.430125 
L 391.360625 22.318125 
L 34.240625 22.318125 
z
" style="fill:#ffffff;"/>
   </g>
   <g id="matplotlib.axis_1">
    <g id="xtick_1">
     <g id="line2d_1">
      <path clip-path="url(#p716e700ad7)" d="M 45.400625 288.430125 
L 45.400625 22.318125 
" style="fill:none;stroke:#b0b0b0;stroke-linecap:square;stroke-width:0.8;"/>
     </g>
     <g id="line2d_2">
      <defs>
       <path d="M 0 0 
L 0 3.5 
" id="m8556d36403" style="stroke:#000000;stroke-width:0.8;"/>
      </defs>
      <g>
       <use style="stroke:#000000;stroke-width:0.8;" x="45.400625" xlink:href="#m8556d36403" y="288.430125"/>
      </g>
     </g>
     <g id="text_1">
      <!-- 32 -->
      <defs>
       <path d="M 40.578125 39.3125 
Q 47.65625 37.796875 51.625 33 
Q 55.609375 28.21875 55.609375 21.1875 
Q 55.609375 10.40625 48.1875 4.484375 
Q 40.765625 -1.421875 27.09375 -1.421875 
Q 22.515625 -1.421875 17.65625 -0.515625 
Q 12.796875 0.390625 7.625 2.203125 
L 7.625 11.71875 
Q 11.71875 9.328125 16.59375 8.109375 
Q 21.484375 6.890625 26.8125 6.890625 
Q 36.078125 6.890625 40.9375 10.546875 
Q 45.796875 14.203125 45.796875 21.1875 
Q 45.796875 27.640625 41.28125 31.265625 
Q 36.765625 34.90625 28.71875 34.90625 
L 20.21875 34.90625 
L 20.21875 43.015625 
L 29.109375 43.015625 
Q 36.375 43.015625 40.234375 45.921875 
Q 44.09375 48.828125 44.09375 54.296875 
Q 44.09375 59.90625 40.109375 62.90625 
Q 36.140625 65.921875 28.71875 65.921875 
Q 24.65625 65.921875 20.015625 65.03125 
Q 15.375 64.15625 9.8125 62.3125 
L 9.8125 71.09375 
Q 15.4375 72.65625 20.34375 73.4375 
Q 25.25 74.21875 29.59375 74.21875 
Q 40.828125 74.21875 47.359375 69.109375 
Q 53.90625 64.015625 53.90625 55.328125 
Q 53.90625 49.265625 50.4375 45.09375 
Q 46.96875 40.921875 40.578125 39.3125 
z
" id="DejaVuSans-33"/>
       <path d="M 19.1875 8.296875 
L 53.609375 8.296875 
L 53.609375 0 
L 7.328125 0 
L 7.328125 8.296875 
Q 12.9375 14.109375 22.625 23.890625 
Q 32.328125 33.6875 34.8125 36.53125 
Q 39.546875 41.84375 41.421875 45.53125 
Q 43.3125 49.21875 43.3125 52.78125 
Q 43.3125 58.59375 39.234375 62.25 
Q 35.15625 65.921875 28.609375 65.921875 
Q 23.96875 65.921875 18.8125 64.3125 
Q 13.671875 62.703125 7.8125 59.421875 
L 7.8125 69.390625 
Q 13.765625 71.78125 18.9375 73 
Q 24.125 74.21875 28.421875 74.21875 
Q 39.75 74.21875 46.484375 68.546875 
Q 53.21875 62.890625 53.21875 53.421875 
Q 53.21875 48.921875 51.53125 44.890625 
Q 49.859375 40.875 45.40625 35.40625 
Q 44.1875 33.984375 37.640625 27.21875 
Q 31.109375 20.453125 19.1875 8.296875 
z
" id="DejaVuSans-32"/>
      </defs>
      <g transform="translate(39.038125 303.028562)scale(0.1 -0.1)">
       <use xlink:href="#DejaVuSans-33"/>
       <use x="63.623047" xlink:href="#DejaVuSans-32"/>
      </g>
     </g>
    </g>
    <g id="xtick_2">
     <g id="line2d_3">
      <path clip-path="url(#p716e700ad7)" d="M 56.560625 288.430125 
L 56.560625 22.318125 
" style="fill:none;stroke:#b0b0b0;stroke-linecap:square;stroke-width:0.8;"/>
     </g>
     <g id="line2d_4">
      <g>
       <use style="stroke:#000000;stroke-width:0.8;" x="56.560625" xlink:href="#m8556d36403" y="288.430125"/>
      </g>
     </g>
     <g id="text_2">
      <!-- 64 -->
      <defs>
       <path d="M 33.015625 40.375 
Q 26.375 40.375 22.484375 35.828125 
Q 18.609375 31.296875 18.609375 23.390625 
Q 18.609375 15.53125 22.484375 10.953125 
Q 26.375 6.390625 33.015625 6.390625 
Q 39.65625 6.390625 43.53125 10.953125 
Q 47.40625 15.53125 47.40625 23.390625 
Q 47.40625 31.296875 43.53125 35.828125 
Q 39.65625 40.375 33.015625 40.375 
z
M 52.59375 71.296875 
L 52.59375 62.3125 
Q 48.875 64.0625 45.09375 64.984375 
Q 41.3125 65.921875 37.59375 65.921875 
Q 27.828125 65.921875 22.671875 59.328125 
Q 17.53125 52.734375 16.796875 39.40625 
Q 19.671875 43.65625 24.015625 45.921875 
Q 28.375 48.1875 33.59375 48.1875 
Q 44.578125 48.1875 50.953125 41.515625 
Q 57.328125 34.859375 57.328125 23.390625 
Q 57.328125 12.15625 50.6875 5.359375 
Q 44.046875 -1.421875 33.015625 -1.421875 
Q 20.359375 -1.421875 13.671875 8.265625 
Q 6.984375 17.96875 6.984375 36.375 
Q 6.984375 53.65625 15.1875 63.9375 
Q 23.390625 74.21875 37.203125 74.21875 
Q 40.921875 74.21875 44.703125 73.484375 
Q 48.484375 72.75 52.59375 71.296875 
z
" id="DejaVuSans-36"/>
       <path d="M 37.796875 64.3125 
L 12.890625 25.390625 
L 37.796875 25.390625 
z
M 35.203125 72.90625 
L 47.609375 72.90625 
L 47.609375 25.390625 
L 58.015625 25.390625 
L 58.015625 17.1875 
L 47.609375 17.1875 
L 47.609375 0 
L 37.796875 0 
L 37.796875 17.1875 
L 4.890625 17.1875 
L 4.890625 26.703125 
z
" id="DejaVuSans-34"/>
      </defs>
      <g transform="translate(50.198125 303.028562)scale(0.1 -0.1)">
       <use xlink:href="#DejaVuSans-36"/>
       <use x="63.623047" xlink:href="#DejaVuSans-34"/>
      </g>
     </g>
    </g>
    <g id="xtick_3">
     <g id="line2d_5">
      <path clip-path="url(#p716e700ad7)" d="M 78.880625 288.430125 
L 78.880625 22.318125 
" style="fill:none;stroke:#b0b0b0;stroke-linecap:square;stroke-width:0.8;"/>
     </g>
     <g id="line2d_6">
      <g>
       <use style="stroke:#000000;stroke-width:0.8;" x="78.880625" xlink:href="#m8556d36403" y="288.430125"/>
      </g>
     </g>
     <g id="text_3">
      <!-- 128 -->
      <defs>
       <path d="M 12.40625 8.296875 
L 28.515625 8.296875 
L 28.515625 63.921875 
L 10.984375 60.40625 
L 10.984375 69.390625 
L 28.421875 72.90625 
L 38.28125 72.90625 
L 38.28125 8.296875 
L 54.390625 8.296875 
L 54.390625 0 
L 12.40625 0 
z
" id="DejaVuSans-31"/>
       <path d="M 31.78125 34.625 
Q 24.75 34.625 20.71875 30.859375 
Q 16.703125 27.09375 16.703125 20.515625 
Q 16.703125 13.921875 20.71875 10.15625 
Q 24.75 6.390625 31.78125 6.390625 
Q 38.8125 6.390625 42.859375 10.171875 
Q 46.921875 13.96875 46.921875 20.515625 
Q 46.921875 27.09375 42.890625 30.859375 
Q 38.875 34.625 31.78125 34.625 
z
M 21.921875 38.8125 
Q 15.578125 40.375 12.03125 44.71875 
Q 8.5 49.078125 8.5 55.328125 
Q 8.5 64.0625 14.71875 69.140625 
Q 20.953125 74.21875 31.78125 74.21875 
Q 42.671875 74.21875 48.875 69.140625 
Q 55.078125 64.0625 55.078125 55.328125 
Q 55.078125 49.078125 51.53125 44.71875 
Q 48 40.375 41.703125 38.8125 
Q 48.828125 37.15625 52.796875 32.3125 
Q 56.78125 27.484375 56.78125 20.515625 
Q 56.78125 9.90625 50.3125 4.234375 
Q 43.84375 -1.421875 31.78125 -1.421875 
Q 19.734375 -1.421875 13.25 4.234375 
Q 6.78125 9.90625 6.78125 20.515625 
Q 6.78125 27.484375 10.78125 32.3125 
Q 14.796875 37.15625 21.921875 38.8125 
z
M 18.3125 54.390625 
Q 18.3125 48.734375 21.84375 45.5625 
Q 25.390625 42.390625 31.78125 42.390625 
Q 38.140625 42.390625 41.71875 45.5625 
Q 45.3125 48.734375 45.3125 54.390625 
Q 45.3125 60.0625 41.71875 63.234375 
Q 38.140625 66.40625 31.78125 66.40625 
Q 25.390625 66.40625 21.84375 63.234375 
Q 18.3125 60.0625 18.3125 54.390625 
z
" id="DejaVuSans-38"/>
      </defs>
      <g transform="translate(69.336875 303.028562)scale(0.1 -0.1)">
       <use xlink:href="#DejaVuSans-31"/>
       <use x="63.623047" xlink:href="#DejaVuSans-32"/>
       <use x="127.246094" xlink:href="#DejaVuSans-38"/>
      </g>
     </g>
    </g>
    <g id="xtick_4">
     <g id="line2d_7">
      <path clip-path="url(#p716e700ad7)" d="M 123.520625 288.430125 
L 123.520625 22.318125 
" style="fill:none;stroke:#b0b0b0;stroke-linecap:square;stroke-width:0.8;"/>
     </g>
     <g id="line2d_8">
      <g>
       <use style="stroke:#000000;stroke-width:0.8;" x="123.520625" xlink:href="#m8556d36403" y="288.430125"/>
      </g>
     </g>
     <g id="text_4">
      <!-- 256 -->
      <defs>
       <path d="M 10.796875 72.90625 
L 49.515625 72.90625 
L 49.515625 64.59375 
L 19.828125 64.59375 
L 19.828125 46.734375 
Q 21.96875 47.46875 24.109375 47.828125 
Q 26.265625 48.1875 28.421875 48.1875 
Q 40.625 48.1875 47.75 41.5 
Q 54.890625 34.8125 54.890625 23.390625 
Q 54.890625 11.625 47.5625 5.09375 
Q 40.234375 -1.421875 26.90625 -1.421875 
Q 22.3125 -1.421875 17.546875 -0.640625 
Q 12.796875 0.140625 7.71875 1.703125 
L 7.71875 11.625 
Q 12.109375 9.234375 16.796875 8.0625 
Q 21.484375 6.890625 26.703125 6.890625 
Q 35.15625 6.890625 40.078125 11.328125 
Q 45.015625 15.765625 45.015625 23.390625 
Q 45.015625 31 40.078125 35.4375 
Q 35.15625 39.890625 26.703125 39.890625 
Q 22.75 39.890625 18.8125 39.015625 
Q 14.890625 38.140625 10.796875 36.28125 
z
" id="DejaVuSans-35"/>
      </defs>
      <g transform="translate(113.976875 303.028562)scale(0.1 -0.1)">
       <use xlink:href="#DejaVuSans-32"/>
       <use x="63.623047" xlink:href="#DejaVuSans-35"/>
       <use x="127.246094" xlink:href="#DejaVuSans-36"/>
      </g>
     </g>
    </g>
    <g id="xtick_5">
     <g id="line2d_9">
      <path clip-path="url(#p716e700ad7)" d="M 212.800625 288.430125 
L 212.800625 22.318125 
" style="fill:none;stroke:#b0b0b0;stroke-linecap:square;stroke-width:0.8;"/>
     </g>
     <g id="line2d_10">
      <g>
       <use style="stroke:#000000;stroke-width:0.8;" x="212.800625" xlink:href="#m8556d36403" y="288.430125"/>
      </g>
     </g>
     <g id="text_5">
      <!-- 512 -->
      <g transform="translate(203.256875 303.028562)scale(0.1 -0.1)">
       <use xlink:href="#DejaVuSans-35"/>
       <use x="63.623047" xlink:href="#DejaVuSans-31"/>
       <use x="127.246094" xlink:href="#DejaVuSans-32"/>
      </g>
     </g>
    </g>
    <g id="xtick_6">
     <g id="line2d_11">
      <path clip-path="url(#p716e700ad7)" d="M 391.360625 288.430125 
L 391.360625 22.318125 
" style="fill:none;stroke:#b0b0b0;stroke-linecap:square;stroke-width:0.8;"/>
     </g>
     <g id="line2d_12">
      <g>
       <use style="stroke:#000000;stroke-width:0.8;" x="391.360625" xlink:href="#m8556d36403" y="288.430125"/>
      </g>
     </g>
     <g id="text_6">
      <!-- 1024 -->
      <defs>
       <path d="M 31.78125 66.40625 
Q 24.171875 66.40625 20.328125 58.90625 
Q 16.5 51.421875 16.5 36.375 
Q 16.5 21.390625 20.328125 13.890625 
Q 24.171875 6.390625 31.78125 6.390625 
Q 39.453125 6.390625 43.28125 13.890625 
Q 47.125 21.390625 47.125 36.375 
Q 47.125 51.421875 43.28125 58.90625 
Q 39.453125 66.40625 31.78125 66.40625 
z
M 31.78125 74.21875 
Q 44.046875 74.21875 50.515625 64.515625 
Q 56.984375 54.828125 56.984375 36.375 
Q 56.984375 17.96875 50.515625 8.265625 
Q 44.046875 -1.421875 31.78125 -1.421875 
Q 19.53125 -1.421875 13.0625 8.265625 
Q 6.59375 17.96875 6.59375 36.375 
Q 6.59375 54.828125 13.0625 64.515625 
Q 19.53125 74.21875 31.78125 74.21875 
z
" id="DejaVuSans-30"/>
      </defs>
      <g transform="translate(378.635625 303.028562)scale(0.1 -0.1)">
       <use xlink:href="#DejaVuSans-31"/>
       <use x="63.623047" xlink:href="#DejaVuSans-30"/>
       <use x="127.246094" xlink:href="#DejaVuSans-32"/>
       <use x="190.869141" xlink:href="#DejaVuSans-34"/>
      </g>
     </g>
    </g>
    <g id="text_7">
     <!-- size -->
     <defs>
      <path d="M 44.28125 53.078125 
L 44.28125 44.578125 
Q 40.484375 46.53125 36.375 47.5 
Q 32.28125 48.484375 27.875 48.484375 
Q 21.1875 48.484375 17.84375 46.4375 
Q 14.5 44.390625 14.5 40.28125 
Q 14.5 37.15625 16.890625 35.375 
Q 19.28125 33.59375 26.515625 31.984375 
L 29.59375 31.296875 
Q 39.15625 29.25 43.1875 25.515625 
Q 47.21875 21.78125 47.21875 15.09375 
Q 47.21875 7.46875 41.1875 3.015625 
Q 35.15625 -1.421875 24.609375 -1.421875 
Q 20.21875 -1.421875 15.453125 -0.5625 
Q 10.6875 0.296875 5.421875 2 
L 5.421875 11.28125 
Q 10.40625 8.6875 15.234375 7.390625 
Q 20.0625 6.109375 24.8125 6.109375 
Q 31.15625 6.109375 34.5625 8.28125 
Q 37.984375 10.453125 37.984375 14.40625 
Q 37.984375 18.0625 35.515625 20.015625 
Q 33.0625 21.96875 24.703125 23.78125 
L 21.578125 24.515625 
Q 13.234375 26.265625 9.515625 29.90625 
Q 5.8125 33.546875 5.8125 39.890625 
Q 5.8125 47.609375 11.28125 51.796875 
Q 16.75 56 26.8125 56 
Q 31.78125 56 36.171875 55.265625 
Q 40.578125 54.546875 44.28125 53.078125 
z
" id="DejaVuSans-73"/>
      <path d="M 9.421875 54.6875 
L 18.40625 54.6875 
L 18.40625 0 
L 9.421875 0 
z
M 9.421875 75.984375 
L 18.40625 75.984375 
L 18.40625 64.59375 
L 9.421875 64.59375 
z
" id="DejaVuSans-69"/>
      <path d="M 5.515625 54.6875 
L 48.1875 54.6875 
L 48.1875 46.484375 
L 14.40625 7.171875 
L 48.1875 7.171875 
L 48.1875 0 
L 4.296875 0 
L 4.296875 8.203125 
L 38.09375 47.515625 
L 5.515625 47.515625 
z
" id="DejaVuSans-7a"/>
      <path d="M 56.203125 29.59375 
L 56.203125 25.203125 
L 14.890625 25.203125 
Q 15.484375 15.921875 20.484375 11.0625 
Q 25.484375 6.203125 34.421875 6.203125 
Q 39.59375 6.203125 44.453125 7.46875 
Q 49.3125 8.734375 54.109375 11.28125 
L 54.109375 2.78125 
Q 49.265625 0.734375 44.1875 -0.34375 
Q 39.109375 -1.421875 33.890625 -1.421875 
Q 20.796875 -1.421875 13.15625 6.1875 
Q 5.515625 13.8125 5.515625 26.8125 
Q 5.515625 40.234375 12.765625 48.109375 
Q 20.015625 56 32.328125 56 
Q 43.359375 56 49.78125 48.890625 
Q 56.203125 41.796875 56.203125 29.59375 
z
M 47.21875 32.234375 
Q 47.125 39.59375 43.09375 43.984375 
Q 39.0625 48.390625 32.421875 48.390625 
Q 24.90625 48.390625 20.390625 44.140625 
Q 15.875 39.890625 15.1875 32.171875 
z
" id="DejaVuSans-65"/>
     </defs>
     <g transform="translate(203.106094 316.706687)scale(0.1 -0.1)">
      <use xlink:href="#DejaVuSans-73"/>
      <use x="52.099609" xlink:href="#DejaVuSans-69"/>
      <use x="79.882812" xlink:href="#DejaVuSans-7a"/>
      <use x="132.373047" xlink:href="#DejaVuSans-65"/>
     </g>
    </g>
   </g>
   <g id="matplotlib.axis_2">
    <g id="ytick_1">
     <g id="line2d_13">
      <path clip-path="url(#p716e700ad7)" d="M 34.240625 288.430125 
L 391.360625 288.430125 
" style="fill:none;stroke:#b0b0b0;stroke-linecap:square;stroke-width:0.8;"/>
     </g>
     <g id="line2d_14">
      <defs>
       <path d="M 0 0 
L -3.5 0 
" id="m1de263264c" style="stroke:#000000;stroke-width:0.8;"/>
      </defs>
      <g>
       <use style="stroke:#000000;stroke-width:0.8;" x="34.240625" xlink:href="#m1de263264c" y="288.430125"/>
      </g>
     </g>
     <g id="text_8">
      <!-- 0 -->
      <g transform="translate(20.878125 292.229344)scale(0.1 -0.1)">
       <use xlink:href="#DejaVuSans-30"/>
      </g>
     </g>
    </g>
    <g id="ytick_2">
     <g id="line2d_15">
      <path clip-path="url(#p716e700ad7)" d="M 34.240625 256.956204 
L 391.360625 256.956204 
" style="fill:none;stroke:#b0b0b0;stroke-linecap:square;stroke-width:0.8;"/>
     </g>
     <g id="line2d_16">
      <g>
       <use style="stroke:#000000;stroke-width:0.8;" x="34.240625" xlink:href="#m1de263264c" y="256.956204"/>
      </g>
     </g>
     <g id="text_9">
      <!-- 1 -->
      <g transform="translate(20.878125 260.755423)scale(0.1 -0.1)">
       <use xlink:href="#DejaVuSans-31"/>
      </g>
     </g>
    </g>
    <g id="ytick_3">
     <g id="line2d_17">
      <path clip-path="url(#p716e700ad7)" d="M 34.240625 225.482283 
L 391.360625 225.482283 
" style="fill:none;stroke:#b0b0b0;stroke-linecap:square;stroke-width:0.8;"/>
     </g>
     <g id="line2d_18">
      <g>
       <use style="stroke:#000000;stroke-width:0.8;" x="34.240625" xlink:href="#m1de263264c" y="225.482283"/>
      </g>
     </g>
     <g id="text_10">
      <!-- 2 -->
      <g transform="translate(20.878125 229.281502)scale(0.1 -0.1)">
       <use xlink:href="#DejaVuSans-32"/>
      </g>
     </g>
    </g>
    <g id="ytick_4">
     <g id="line2d_19">
      <path clip-path="url(#p716e700ad7)" d="M 34.240625 194.008363 
L 391.360625 194.008363 
" style="fill:none;stroke:#b0b0b0;stroke-linecap:square;stroke-width:0.8;"/>
     </g>
     <g id="line2d_20">
      <g>
       <use style="stroke:#000000;stroke-width:0.8;" x="34.240625" xlink:href="#m1de263264c" y="194.008363"/>
      </g>
     </g>
     <g id="text_11">
      <!-- 3 -->
      <g transform="translate(20.878125 197.807581)scale(0.1 -0.1)">
       <use xlink:href="#DejaVuSans-33"/>
      </g>
     </g>
    </g>
    <g id="ytick_5">
     <g id="line2d_21">
      <path clip-path="url(#p716e700ad7)" d="M 34.240625 162.534442 
L 391.360625 162.534442 
" style="fill:none;stroke:#b0b0b0;stroke-linecap:square;stroke-width:0.8;"/>
     </g>
     <g id="line2d_22">
      <g>
       <use style="stroke:#000000;stroke-width:0.8;" x="34.240625" xlink:href="#m1de263264c" y="162.534442"/>
      </g>
     </g>
     <g id="text_12">
      <!-- 4 -->
      <g transform="translate(20.878125 166.333661)scale(0.1 -0.1)">
       <use xlink:href="#DejaVuSans-34"/>
      </g>
     </g>
    </g>
    <g id="ytick_6">
     <g id="line2d_23">
      <path clip-path="url(#p716e700ad7)" d="M 34.240625 131.060521 
L 391.360625 131.060521 
" style="fill:none;stroke:#b0b0b0;stroke-linecap:square;stroke-width:0.8;"/>
     </g>
     <g id="line2d_24">
      <g>
       <use style="stroke:#000000;stroke-width:0.8;" x="34.240625" xlink:href="#m1de263264c" y="131.060521"/>
      </g>
     </g>
     <g id="text_13">
      <!-- 5 -->
      <g transform="translate(20.878125 134.85974)scale(0.1 -0.1)">
       <use xlink:href="#DejaVuSans-35"/>
      </g>
     </g>
    </g>
    <g id="ytick_7">
     <g id="line2d_25">
      <path clip-path="url(#p716e700ad7)" d="M 34.240625 99.5866 
L 391.360625 99.5866 
" style="fill:none;stroke:#b0b0b0;stroke-linecap:square;stroke-width:0.8;"/>
     </g>
     <g id="line2d_26">
      <g>
       <use style="stroke:#000000;stroke-width:0.8;" x="34.240625" xlink:href="#m1de263264c" y="99.5866"/>
      </g>
     </g>
     <g id="text_14">
      <!-- 6 -->
      <g transform="translate(20.878125 103.385819)scale(0.1 -0.1)">
       <use xlink:href="#DejaVuSans-36"/>
      </g>
     </g>
    </g>
    <g id="ytick_8">
     <g id="line2d_27">
      <path clip-path="url(#p716e700ad7)" d="M 34.240625 68.11268 
L 391.360625 68.11268 
" style="fill:none;stroke:#b0b0b0;stroke-linecap:square;stroke-width:0.8;"/>
     </g>
     <g id="line2d_28">
      <g>
       <use style="stroke:#000000;stroke-width:0.8;" x="34.240625" xlink:href="#m1de263264c" y="68.11268"/>
      </g>
     </g>
     <g id="text_15">
      <!-- 7 -->
      <defs>
       <path d="M 8.203125 72.90625 
L 55.078125 72.90625 
L 55.078125 68.703125 
L 28.609375 0 
L 18.3125 0 
L 43.21875 64.59375 
L 8.203125 64.59375 
z
" id="DejaVuSans-37"/>
      </defs>
      <g transform="translate(20.878125 71.911898)scale(0.1 -0.1)">
       <use xlink:href="#DejaVuSans-37"/>
      </g>
     </g>
    </g>
    <g id="ytick_9">
     <g id="line2d_29">
      <path clip-path="url(#p716e700ad7)" d="M 34.240625 36.638759 
L 391.360625 36.638759 
" style="fill:none;stroke:#b0b0b0;stroke-linecap:square;stroke-width:0.8;"/>
     </g>
     <g id="line2d_30">
      <g>
       <use style="stroke:#000000;stroke-width:0.8;" x="34.240625" xlink:href="#m1de263264c" y="36.638759"/>
      </g>
     </g>
     <g id="text_16">
      <!-- 8 -->
      <g transform="translate(20.878125 40.437978)scale(0.1 -0.1)">
       <use xlink:href="#DejaVuSans-38"/>
      </g>
     </g>
    </g>
    <g id="text_17">
     <!-- time -->
     <defs>
      <path d="M 18.3125 70.21875 
L 18.3125 54.6875 
L 36.8125 54.6875 
L 36.8125 47.703125 
L 18.3125 47.703125 
L 18.3125 18.015625 
Q 18.3125 11.328125 20.140625 9.421875 
Q 21.96875 7.515625 27.59375 7.515625 
L 36.8125 7.515625 
L 36.8125 0 
L 27.59375 0 
Q 17.1875 0 13.234375 3.875 
Q 9.28125 7.765625 9.28125 18.015625 
L 9.28125 47.703125 
L 2.6875 47.703125 
L 2.6875 54.6875 
L 9.28125 54.6875 
L 9.28125 70.21875 
z
" id="DejaVuSans-74"/>
      <path d="M 52 44.1875 
Q 55.375 50.25 60.0625 53.125 
Q 64.75 56 71.09375 56 
Q 79.640625 56 84.28125 50.015625 
Q 88.921875 44.046875 88.921875 33.015625 
L 88.921875 0 
L 79.890625 0 
L 79.890625 32.71875 
Q 79.890625 40.578125 77.09375 44.375 
Q 74.3125 48.1875 68.609375 48.1875 
Q 61.625 48.1875 57.5625 43.546875 
Q 53.515625 38.921875 53.515625 30.90625 
L 53.515625 0 
L 44.484375 0 
L 44.484375 32.71875 
Q 44.484375 40.625 41.703125 44.40625 
Q 38.921875 48.1875 33.109375 48.1875 
Q 26.21875 48.1875 22.15625 43.53125 
Q 18.109375 38.875 18.109375 30.90625 
L 18.109375 0 
L 9.078125 0 
L 9.078125 54.6875 
L 18.109375 54.6875 
L 18.109375 46.1875 
Q 21.1875 51.21875 25.484375 53.609375 
Q 29.78125 56 35.6875 56 
Q 41.65625 56 45.828125 52.96875 
Q 50 49.953125 52 44.1875 
z
" id="DejaVuSans-6d"/>
     </defs>
     <g transform="translate(14.798438 166.670219)rotate(-90)scale(0.1 -0.1)">
      <use xlink:href="#DejaVuSans-74"/>
      <use x="39.208984" xlink:href="#DejaVuSans-69"/>
      <use x="66.992188" xlink:href="#DejaVuSans-6d"/>
      <use x="164.404297" xlink:href="#DejaVuSans-65"/>
     </g>
    </g>
   </g>
   <g id="line2d_31">
    <path clip-path="url(#p716e700ad7)" d="M 45.400625 282.135341 
L 49.585625 279.617427 
L 49.934375 279.302688 
L 52.026875 278.043731 
L 52.375625 278.043731 
L 56.560625 275.840557 
L 65.279375 270.804729 
L 65.628125 269.860512 
L 69.813125 267.342598 
L 70.161875 266.71312 
L 78.880625 260.418336 
L 96.666875 250.976159 
L 97.015625 242.478201 
L 105.385625 245.310854 
L 105.734375 245.940332 
L 123.520625 231.777068 
L 159.093125 210.374802 
L 159.441875 211.319019 
L 176.879375 192.119927 
L 177.228125 198.729451 
L 212.800625 167.25553 
L 283.945625 115.323561 
L 284.294375 116.582518 
L 319.866875 94.236034 
L 320.215625 94.865512 
L 391.360625 43.563022 
" style="fill:none;stroke:#1f77b4;stroke-linecap:square;stroke-width:1.5;"/>
   </g>
   <g id="line2d_32">
    <path clip-path="url(#p716e700ad7)" d="M 45.400625 282.45008 
L 49.585625 279.302688 
L 49.934375 279.302688 
L 52.026875 278.043731 
L 52.375625 278.043731 
L 56.560625 275.525817 
L 65.279375 270.175251 
L 65.628125 270.175251 
L 69.813125 266.71312 
L 70.161875 266.083641 
L 78.880625 261.677292 
L 96.666875 250.66142 
L 97.015625 250.976159 
L 105.385625 245.625593 
L 105.734375 244.681375 
L 123.520625 235.239199 
L 159.093125 210.689541 
L 159.441875 207.542149 
L 176.879375 199.988408 
L 177.228125 189.287275 
L 212.800625 167.885009 
L 283.945625 117.211996 
L 284.294375 112.805647 
L 319.866875 91.403381 
L 320.215625 86.682293 
L 391.360625 34.750324 
" style="fill:none;stroke:#ff7f0e;stroke-linecap:square;stroke-width:1.5;"/>
   </g>
   <g id="line2d_33">
    <path clip-path="url(#p716e700ad7)" d="M 45.400625 283.079558 
L 49.585625 281.191123 
L 49.934375 280.876384 
L 52.026875 279.617427 
L 52.375625 279.617427 
L 56.560625 277.728992 
L 65.279375 273.637382 
L 65.628125 273.007904 
L 69.813125 270.175251 
L 70.161875 270.175251 
L 78.880625 261.992032 
L 96.666875 255.382508 
L 97.015625 256.326726 
L 105.385625 251.605638 
L 105.734375 251.920377 
L 123.520625 243.107679 
L 159.093125 224.223327 
L 159.441875 213.522194 
L 176.879375 215.725368 
L 177.228125 205.653713 
L 212.800625 181.733534 
L 283.945625 137.670045 
L 284.294375 140.187958 
L 319.866875 119.72991 
L 320.215625 116.897257 
L 391.360625 74.407464 
" style="fill:none;stroke:#2ca02c;stroke-linecap:square;stroke-width:1.5;"/>
   </g>
   <g id="line2d_34">
    <path clip-path="url(#p716e700ad7)" d="M 45.400625 283.079558 
L 49.585625 280.876384 
L 49.934375 280.876384 
L 52.026875 279.617427 
L 52.375625 279.617427 
L 56.560625 277.414253 
L 65.279375 273.007904 
L 65.628125 273.322643 
L 69.813125 269.860512 
L 70.161875 270.48999 
L 78.880625 265.768902 
L 96.666875 256.326726 
L 97.015625 256.641465 
L 105.385625 252.864595 
L 105.734375 251.605638 
L 123.520625 243.107679 
L 159.093125 223.908587 
L 159.441875 214.151672 
L 176.879375 213.522194 
L 177.228125 208.171627 
L 212.800625 185.510404 
L 283.945625 138.929001 
L 284.294375 138.929001 
L 319.866875 119.100431 
L 320.215625 117.526735 
L 391.360625 76.295899 
" style="fill:none;stroke:#d62728;stroke-linecap:square;stroke-width:1.5;"/>
   </g>
   <g id="line2d_35">
    <path clip-path="url(#p716e700ad7)" d="M 45.400625 283.079558 
L 49.585625 281.191123 
L 49.934375 280.876384 
L 52.026875 279.932166 
L 52.375625 279.617427 
L 56.560625 277.728992 
L 65.279375 273.007904 
L 65.628125 273.322643 
L 69.813125 270.48999 
L 70.161875 269.545773 
L 78.880625 264.195206 
L 96.666875 256.326726 
L 97.015625 256.326726 
L 105.385625 251.290899 
L 105.734375 246.88455 
L 123.520625 243.422418 
L 159.093125 215.410629 
L 159.441875 219.187499 
L 176.879375 212.263237 
L 177.228125 207.856888 
L 212.800625 179.530359 
L 283.945625 136.096349 
L 284.294375 140.817437 
L 319.866875 111.86143 
L 320.215625 120.674127 
L 391.360625 71.88955 
" style="fill:none;stroke:#9467bd;stroke-linecap:square;stroke-width:1.5;"/>
   </g>
   <g id="line2d_36">
    <path clip-path="url(#p716e700ad7)" d="M 45.400625 283.394298 
L 49.585625 281.191123 
L 49.934375 280.876384 
L 52.026875 279.932166 
L 52.375625 279.617427 
L 56.560625 277.414253 
L 65.279375 273.637382 
L 65.628125 273.007904 
L 69.813125 270.48999 
L 70.161875 270.48999 
L 78.880625 264.195206 
L 96.666875 256.956204 
L 97.015625 255.382508 
L 105.385625 251.605638 
L 105.734375 251.605638 
L 123.520625 243.107679 
L 159.093125 223.593848 
L 159.441875 211.948498 
L 176.879375 213.522194 
L 177.228125 202.506321 
L 212.800625 185.510404 
L 283.945625 136.725827 
L 284.294375 140.502697 
L 319.866875 113.120386 
L 320.215625 115.6383 
L 391.360625 75.98116 
" style="fill:none;stroke:#8c564b;stroke-linecap:square;stroke-width:1.5;"/>
   </g>
   <g id="line2d_37">
    <path clip-path="url(#p716e700ad7)" d="M 45.400625 283.079558 
L 49.585625 280.876384 
L 49.934375 280.876384 
L 52.026875 279.932166 
L 52.375625 279.617427 
L 56.560625 277.728992 
L 65.279375 273.322643 
L 65.628125 273.007904 
L 69.813125 270.48999 
L 70.161875 270.175251 
L 78.880625 265.454163 
L 96.666875 256.011987 
L 97.015625 255.697247 
L 105.385625 252.235116 
L 105.734375 251.605638 
L 123.520625 239.960287 
L 159.093125 218.243282 
L 159.441875 213.836933 
L 176.879375 214.151672 
L 177.228125 211.319019 
L 212.800625 179.530359 
L 283.945625 135.46687 
L 284.294375 137.355305 
L 319.866875 116.897257 
L 320.215625 112.176169 
L 391.360625 77.240117 
" style="fill:none;stroke:#e377c2;stroke-linecap:square;stroke-width:1.5;"/>
   </g>
   <g id="line2d_38">
    <path clip-path="url(#p716e700ad7)" d="M 45.400625 283.079558 
L 49.585625 281.191123 
L 49.934375 280.561645 
L 52.026875 279.932166 
L 52.375625 279.617427 
L 56.560625 277.414253 
L 65.279375 273.322643 
L 65.628125 273.322643 
L 69.813125 270.804729 
L 70.161875 270.175251 
L 78.880625 264.509945 
L 96.666875 256.326726 
L 97.015625 254.123551 
L 105.385625 251.920377 
L 105.734375 251.920377 
L 123.520625 243.422418 
L 159.093125 222.334891 
L 159.441875 212.892715 
L 176.879375 210.689541 
L 177.228125 206.597931 
L 212.800625 180.159838 
L 283.945625 139.55848 
L 284.294375 135.152131 
L 319.866875 112.805647 
L 320.215625 114.694082 
L 391.360625 73.463246 
" style="fill:none;stroke:#7f7f7f;stroke-linecap:square;stroke-width:1.5;"/>
   </g>
   <g id="line2d_39">
    <path clip-path="url(#p716e700ad7)" d="M 45.400625 283.079558 
L 49.585625 280.876384 
L 49.934375 280.876384 
L 52.026875 279.617427 
L 52.375625 279.617427 
L 56.560625 277.414253 
L 65.279375 273.637382 
L 65.628125 272.693165 
L 69.813125 268.286816 
L 70.161875 267.972077 
L 78.880625 265.139424 
L 96.666875 256.641465 
L 97.015625 255.697247 
L 105.385625 252.549855 
L 105.734375 251.920377 
L 123.520625 238.386591 
L 159.093125 224.538066 
L 159.441875 215.725368 
L 176.879375 208.171627 
L 177.228125 211.00428 
L 212.800625 179.845098 
L 283.945625 137.355305 
L 284.294375 61.817896 
L 319.866875 116.267778 
L 320.215625 108.084559 
L 391.360625 76.295899 
" style="fill:none;stroke:#bcbd22;stroke-linecap:square;stroke-width:1.5;"/>
   </g>
   <g id="line2d_40">
    <path clip-path="url(#p716e700ad7)" d="M 45.400625 283.079558 
L 49.585625 280.876384 
L 49.934375 280.876384 
L 52.026875 279.932166 
L 52.375625 279.932166 
L 56.560625 277.414253 
L 65.279375 273.007904 
L 65.628125 273.007904 
L 69.813125 271.434208 
L 70.161875 270.804729 
L 78.880625 265.768902 
L 96.666875 255.697247 
L 97.015625 256.641465 
L 105.385625 252.235116 
L 105.734375 252.235116 
L 123.520625 238.386591 
L 159.093125 219.502239 
L 159.441875 220.446456 
L 176.879375 212.892715 
L 177.228125 199.358929 
L 212.800625 175.438749 
L 283.945625 130.116304 
L 284.294375 132.319478 
L 319.866875 110.602473 
L 320.215625 111.86143 
L 391.360625 71.260072 
" style="fill:none;stroke:#17becf;stroke-linecap:square;stroke-width:1.5;"/>
   </g>
   <g id="line2d_41">
    <path clip-path="url(#p716e700ad7)" d="M 45.400625 282.764819 
L 49.585625 281.191123 
L 49.934375 280.246906 
L 52.026875 279.302688 
L 52.375625 278.987949 
L 56.560625 276.784774 
L 65.279375 272.378425 
L 65.628125 273.007904 
L 69.813125 269.860512 
L 70.161875 270.175251 
L 78.880625 263.250988 
L 96.666875 255.697247 
L 97.015625 255.697247 
L 105.385625 251.290899 
L 105.734375 251.920377 
L 123.520625 237.442373 
L 159.093125 186.139883 
L 159.441875 213.836933 
L 176.879375 194.637841 
L 177.228125 206.597931 
L 212.800625 176.068228 
L 283.945625 132.634217 
L 284.294375 128.542608 
L 319.866875 113.749865 
L 320.215625 110.602473 
L 391.360625 39.156673 
" style="fill:none;stroke:#1f77b4;stroke-linecap:square;stroke-width:1.5;"/>
   </g>
   <g id="patch_3">
    <path d="M 34.240625 288.430125 
L 34.240625 22.318125 
" style="fill:none;stroke:#000000;stroke-linecap:square;stroke-linejoin:miter;stroke-width:0.8;"/>
   </g>
   <g id="patch_4">
    <path d="M 391.360625 288.430125 
L 391.360625 22.318125 
" style="fill:none;stroke:#000000;stroke-linecap:square;stroke-linejoin:miter;stroke-width:0.8;"/>
   </g>
   <g id="patch_5">
    <path d="M 34.240625 288.430125 
L 391.360625 288.430125 
" style="fill:none;stroke:#000000;stroke-linecap:square;stroke-linejoin:miter;stroke-width:0.8;"/>
   </g>
   <g id="patch_6">
    <path d="M 34.240625 22.318125 
L 391.360625 22.318125 
" style="fill:none;stroke:#000000;stroke-linecap:square;stroke-linejoin:miter;stroke-width:0.8;"/>
   </g>
   <g id="text_18">
    <!-- patch times vs filesize for defaults -->
    <defs>
     <path d="M 18.109375 8.203125 
L 18.109375 -20.796875 
L 9.078125 -20.796875 
L 9.078125 54.6875 
L 18.109375 54.6875 
L 18.109375 46.390625 
Q 20.953125 51.265625 25.265625 53.625 
Q 29.59375 56 35.59375 56 
Q 45.5625 56 51.78125 48.09375 
Q 58.015625 40.1875 58.015625 27.296875 
Q 58.015625 14.40625 51.78125 6.484375 
Q 45.5625 -1.421875 35.59375 -1.421875 
Q 29.59375 -1.421875 25.265625 0.953125 
Q 20.953125 3.328125 18.109375 8.203125 
z
M 48.6875 27.296875 
Q 48.6875 37.203125 44.609375 42.84375 
Q 40.53125 48.484375 33.40625 48.484375 
Q 26.265625 48.484375 22.1875 42.84375 
Q 18.109375 37.203125 18.109375 27.296875 
Q 18.109375 17.390625 22.1875 11.75 
Q 26.265625 6.109375 33.40625 6.109375 
Q 40.53125 6.109375 44.609375 11.75 
Q 48.6875 17.390625 48.6875 27.296875 
z
" id="DejaVuSans-70"/>
     <path d="M 34.28125 27.484375 
Q 23.390625 27.484375 19.1875 25 
Q 14.984375 22.515625 14.984375 16.5 
Q 14.984375 11.71875 18.140625 8.90625 
Q 21.296875 6.109375 26.703125 6.109375 
Q 34.1875 6.109375 38.703125 11.40625 
Q 43.21875 16.703125 43.21875 25.484375 
L 43.21875 27.484375 
z
M 52.203125 31.203125 
L 52.203125 0 
L 43.21875 0 
L 43.21875 8.296875 
Q 40.140625 3.328125 35.546875 0.953125 
Q 30.953125 -1.421875 24.3125 -1.421875 
Q 15.921875 -1.421875 10.953125 3.296875 
Q 6 8.015625 6 15.921875 
Q 6 25.140625 12.171875 29.828125 
Q 18.359375 34.515625 30.609375 34.515625 
L 43.21875 34.515625 
L 43.21875 35.40625 
Q 43.21875 41.609375 39.140625 45 
Q 35.0625 48.390625 27.6875 48.390625 
Q 23 48.390625 18.546875 47.265625 
Q 14.109375 46.140625 10.015625 43.890625 
L 10.015625 52.203125 
Q 14.9375 54.109375 19.578125 55.046875 
Q 24.21875 56 28.609375 56 
Q 40.484375 56 46.34375 49.84375 
Q 52.203125 43.703125 52.203125 31.203125 
z
" id="DejaVuSans-61"/>
     <path d="M 48.78125 52.59375 
L 48.78125 44.1875 
Q 44.96875 46.296875 41.140625 47.34375 
Q 37.3125 48.390625 33.40625 48.390625 
Q 24.65625 48.390625 19.8125 42.84375 
Q 14.984375 37.3125 14.984375 27.296875 
Q 14.984375 17.28125 19.8125 11.734375 
Q 24.65625 6.203125 33.40625 6.203125 
Q 37.3125 6.203125 41.140625 7.25 
Q 44.96875 8.296875 48.78125 10.40625 
L 48.78125 2.09375 
Q 45.015625 0.34375 40.984375 -0.53125 
Q 36.96875 -1.421875 32.421875 -1.421875 
Q 20.0625 -1.421875 12.78125 6.34375 
Q 5.515625 14.109375 5.515625 27.296875 
Q 5.515625 40.671875 12.859375 48.328125 
Q 20.21875 56 33.015625 56 
Q 37.15625 56 41.109375 55.140625 
Q 45.0625 54.296875 48.78125 52.59375 
z
" id="DejaVuSans-63"/>
     <path d="M 54.890625 33.015625 
L 54.890625 0 
L 45.90625 0 
L 45.90625 32.71875 
Q 45.90625 40.484375 42.875 44.328125 
Q 39.84375 48.1875 33.796875 48.1875 
Q 26.515625 48.1875 22.3125 43.546875 
Q 18.109375 38.921875 18.109375 30.90625 
L 18.109375 0 
L 9.078125 0 
L 9.078125 75.984375 
L 18.109375 75.984375 
L 18.109375 46.1875 
Q 21.34375 51.125 25.703125 53.5625 
Q 30.078125 56 35.796875 56 
Q 45.21875 56 50.046875 50.171875 
Q 54.890625 44.34375 54.890625 33.015625 
z
" id="DejaVuSans-68"/>
     <path id="DejaVuSans-20"/>
     <path d="M 2.984375 54.6875 
L 12.5 54.6875 
L 29.59375 8.796875 
L 46.6875 54.6875 
L 56.203125 54.6875 
L 35.6875 0 
L 23.484375 0 
z
" id="DejaVuSans-76"/>
     <path d="M 37.109375 75.984375 
L 37.109375 68.5 
L 28.515625 68.5 
Q 23.6875 68.5 21.796875 66.546875 
Q 19.921875 64.59375 19.921875 59.515625 
L 19.921875 54.6875 
L 34.71875 54.6875 
L 34.71875 47.703125 
L 19.921875 47.703125 
L 19.921875 0 
L 10.890625 0 
L 10.890625 47.703125 
L 2.296875 47.703125 
L 2.296875 54.6875 
L 10.890625 54.6875 
L 10.890625 58.5 
Q 10.890625 67.625 15.140625 71.796875 
Q 19.390625 75.984375 28.609375 75.984375 
z
" id="DejaVuSans-66"/>
     <path d="M 9.421875 75.984375 
L 18.40625 75.984375 
L 18.40625 0 
L 9.421875 0 
z
" id="DejaVuSans-6c"/>
     <path d="M 30.609375 48.390625 
Q 23.390625 48.390625 19.1875 42.75 
Q 14.984375 37.109375 14.984375 27.296875 
Q 14.984375 17.484375 19.15625 11.84375 
Q 23.34375 6.203125 30.609375 6.203125 
Q 37.796875 6.203125 41.984375 11.859375 
Q 46.1875 17.53125 46.1875 27.296875 
Q 46.1875 37.015625 41.984375 42.703125 
Q 37.796875 48.390625 30.609375 48.390625 
z
M 30.609375 56 
Q 42.328125 56 49.015625 48.375 
Q 55.71875 40.765625 55.71875 27.296875 
Q 55.71875 13.875 49.015625 6.21875 
Q 42.328125 -1.421875 30.609375 -1.421875 
Q 18.84375 -1.421875 12.171875 6.21875 
Q 5.515625 13.875 5.515625 27.296875 
Q 5.515625 40.765625 12.171875 48.375 
Q 18.84375 56 30.609375 56 
z
" id="DejaVuSans-6f"/>
     <path d="M 41.109375 46.296875 
Q 39.59375 47.171875 37.8125 47.578125 
Q 36.03125 48 33.890625 48 
Q 26.265625 48 22.1875 43.046875 
Q 18.109375 38.09375 18.109375 28.8125 
L 18.109375 0 
L 9.078125 0 
L 9.078125 54.6875 
L 18.109375 54.6875 
L 18.109375 46.1875 
Q 20.953125 51.171875 25.484375 53.578125 
Q 30.03125 56 36.53125 56 
Q 37.453125 56 38.578125 55.875 
Q 39.703125 55.765625 41.0625 55.515625 
z
" id="DejaVuSans-72"/>
     <path d="M 45.40625 46.390625 
L 45.40625 75.984375 
L 54.390625 75.984375 
L 54.390625 0 
L 45.40625 0 
L 45.40625 8.203125 
Q 42.578125 3.328125 38.25 0.953125 
Q 33.9375 -1.421875 27.875 -1.421875 
Q 17.96875 -1.421875 11.734375 6.484375 
Q 5.515625 14.40625 5.515625 27.296875 
Q 5.515625 40.1875 11.734375 48.09375 
Q 17.96875 56 27.875 56 
Q 33.9375 56 38.25 53.625 
Q 42.578125 51.265625 45.40625 46.390625 
z
M 14.796875 27.296875 
Q 14.796875 17.390625 18.875 11.75 
Q 22.953125 6.109375 30.078125 6.109375 
Q 37.203125 6.109375 41.296875 11.75 
Q 45.40625 17.390625 45.40625 27.296875 
Q 45.40625 37.203125 41.296875 42.84375 
Q 37.203125 48.484375 30.078125 48.484375 
Q 22.953125 48.484375 18.875 42.84375 
Q 14.796875 37.203125 14.796875 27.296875 
z
" id="DejaVuSans-64"/>
     <path d="M 8.5 21.578125 
L 8.5 54.6875 
L 17.484375 54.6875 
L 17.484375 21.921875 
Q 17.484375 14.15625 20.5 10.265625 
Q 23.53125 6.390625 29.59375 6.390625 
Q 36.859375 6.390625 41.078125 11.03125 
Q 45.3125 15.671875 45.3125 23.6875 
L 45.3125 54.6875 
L 54.296875 54.6875 
L 54.296875 0 
L 45.3125 0 
L 45.3125 8.40625 
Q 42.046875 3.421875 37.71875 1 
Q 33.40625 -1.421875 27.6875 -1.421875 
Q 18.265625 -1.421875 13.375 4.4375 
Q 8.5 10.296875 8.5 21.578125 
z
M 31.109375 56 
z
" id="DejaVuSans-75"/>
    </defs>
    <g transform="translate(109.710313 16.318125)scale(0.12 -0.12)">
     <use xlink:href="#DejaVuSans-70"/>
     <use x="63.476562" xlink:href="#DejaVuSans-61"/>
     <use x="124.755859" xlink:href="#DejaVuSans-74"/>
     <use x="163.964844" xlink:href="#DejaVuSans-63"/>
     <use x="218.945312" xlink:href="#DejaVuSans-68"/>
     <use x="282.324219" xlink:href="#DejaVuSans-20"/>
     <use x="314.111328" xlink:href="#DejaVuSans-74"/>
     <use x="353.320312" xlink:href="#DejaVuSans-69"/>
     <use x="381.103516" xlink:href="#DejaVuSans-6d"/>
     <use x="478.515625" xlink:href="#DejaVuSans-65"/>
     <use x="540.039062" xlink:href="#DejaVuSans-73"/>
     <use x="592.138672" xlink:href="#DejaVuSans-20"/>
     <use x="623.925781" xlink:href="#DejaVuSans-76"/>
     <use x="683.105469" xlink:href="#DejaVuSans-73"/>
     <use x="735.205078" xlink:href="#DejaVuSans-20"/>
     <use x="766.992188" xlink:href="#DejaVuSans-66"/>
     <use x="802.197266" xlink:href="#DejaVuSans-69"/>
     <use x="829.980469" xlink:href="#DejaVuSans-6c"/>
     <use x="857.763672" xlink:href="#DejaVuSans-65"/>
     <use x="919.287109" xlink:href="#DejaVuSans-73"/>
     <use x="971.386719" xlink:href="#DejaVuSans-69"/>
     <use x="999.169922" xlink:href="#DejaVuSans-7a"/>
     <use x="1051.660156" xlink:href="#DejaVuSans-65"/>
     <use x="1113.183594" xlink:href="#DejaVuSans-20"/>
     <use x="1144.970703" xlink:href="#DejaVuSans-66"/>
     <use x="1180.175781" xlink:href="#DejaVuSans-6f"/>
     <use x="1241.357422" xlink:href="#DejaVuSans-72"/>
     <use x="1282.470703" xlink:href="#DejaVuSans-20"/>
     <use x="1314.257812" xlink:href="#DejaVuSans-64"/>
     <use x="1377.734375" xlink:href="#DejaVuSans-65"/>
     <use x="1439.257812" xlink:href="#DejaVuSans-66"/>
     <use x="1474.462891" xlink:href="#DejaVuSans-61"/>
     <use x="1535.742188" xlink:href="#DejaVuSans-75"/>
     <use x="1599.121094" xlink:href="#DejaVuSans-6c"/>
     <use x="1626.904297" xlink:href="#DejaVuSans-74"/>
     <use x="1666.113281" xlink:href="#DejaVuSans-73"/>
    </g>
   </g>
   <g id="legend_1">
    <g id="patch_7">
     <path d="M 398.360625 191.7775 
L 478.041875 191.7775 
Q 480.041875 191.7775 480.041875 189.7775 
L 480.041875 29.318125 
Q 480.041875 27.318125 478.041875 27.318125 
L 398.360625 27.318125 
Q 396.360625 27.318125 396.360625 29.318125 
L 396.360625 189.7775 
Q 396.360625 191.7775 398.360625 191.7775 
z
" style="fill:#ffffff;opacity:0.8;stroke:#cccccc;stroke-linejoin:miter;"/>
    </g>
    <g id="line2d_42">
     <path d="M 400.360625 35.416562 
L 420.360625 35.416562 
" style="fill:none;stroke:#1f77b4;stroke-linecap:square;stroke-width:1.5;"/>
    </g>
    <g id="line2d_43"/>
    <g id="text_19">
     <!-- v1.0.1 -->
     <defs>
      <path d="M 10.6875 12.40625 
L 21 12.40625 
L 21 0 
L 10.6875 0 
z
" id="DejaVuSans-2e"/>
     </defs>
     <g transform="translate(428.360625 38.916562)scale(0.1 -0.1)">
      <use xlink:href="#DejaVuSans-76"/>
      <use x="59.179688" xlink:href="#DejaVuSans-31"/>
      <use x="122.802734" xlink:href="#DejaVuSans-2e"/>
      <use x="154.589844" xlink:href="#DejaVuSans-30"/>
      <use x="218.212891" xlink:href="#DejaVuSans-2e"/>
      <use x="250" xlink:href="#DejaVuSans-31"/>
     </g>
    </g>
    <g id="line2d_44">
     <path d="M 400.360625 50.094688 
L 420.360625 50.094688 
" style="fill:none;stroke:#ff7f0e;stroke-linecap:square;stroke-width:1.5;"/>
    </g>
    <g id="line2d_45"/>
    <g id="text_20">
     <!-- v2.0.0 -->
     <g transform="translate(428.360625 53.594688)scale(0.1 -0.1)">
      <use xlink:href="#DejaVuSans-76"/>
      <use x="59.179688" xlink:href="#DejaVuSans-32"/>
      <use x="122.802734" xlink:href="#DejaVuSans-2e"/>
      <use x="154.589844" xlink:href="#DejaVuSans-30"/>
      <use x="218.212891" xlink:href="#DejaVuSans-2e"/>
      <use x="250" xlink:href="#DejaVuSans-30"/>
     </g>
    </g>
    <g id="line2d_46">
     <path d="M 400.360625 64.772812 
L 420.360625 64.772812 
" style="fill:none;stroke:#2ca02c;stroke-linecap:square;stroke-width:1.5;"/>
    </g>
    <g id="line2d_47"/>
    <g id="text_21">
     <!-- v2.0.1 -->
     <g transform="translate(428.360625 68.272812)scale(0.1 -0.1)">
      <use xlink:href="#DejaVuSans-76"/>
      <use x="59.179688" xlink:href="#DejaVuSans-32"/>
      <use x="122.802734" xlink:href="#DejaVuSans-2e"/>
      <use x="154.589844" xlink:href="#DejaVuSans-30"/>
      <use x="218.212891" xlink:href="#DejaVuSans-2e"/>
      <use x="250" xlink:href="#DejaVuSans-31"/>
     </g>
    </g>
    <g id="line2d_48">
     <path d="M 400.360625 79.450938 
L 420.360625 79.450938 
" style="fill:none;stroke:#d62728;stroke-linecap:square;stroke-width:1.5;"/>
    </g>
    <g id="line2d_49"/>
    <g id="text_22">
     <!-- v2.0.2 -->
     <g transform="translate(428.360625 82.950938)scale(0.1 -0.1)">
      <use xlink:href="#DejaVuSans-76"/>
      <use x="59.179688" xlink:href="#DejaVuSans-32"/>
      <use x="122.802734" xlink:href="#DejaVuSans-2e"/>
      <use x="154.589844" xlink:href="#DejaVuSans-30"/>
      <use x="218.212891" xlink:href="#DejaVuSans-2e"/>
      <use x="250" xlink:href="#DejaVuSans-32"/>
     </g>
    </g>
    <g id="line2d_50">
     <path d="M 400.360625 94.129063 
L 420.360625 94.129063 
" style="fill:none;stroke:#9467bd;stroke-linecap:square;stroke-width:1.5;"/>
    </g>
    <g id="line2d_51"/>
    <g id="text_23">
     <!-- v2.1.0 -->
     <g transform="translate(428.360625 97.629063)scale(0.1 -0.1)">
      <use xlink:href="#DejaVuSans-76"/>
      <use x="59.179688" xlink:href="#DejaVuSans-32"/>
      <use x="122.802734" xlink:href="#DejaVuSans-2e"/>
      <use x="154.589844" xlink:href="#DejaVuSans-31"/>
      <use x="218.212891" xlink:href="#DejaVuSans-2e"/>
      <use x="250" xlink:href="#DejaVuSans-30"/>
     </g>
    </g>
    <g id="line2d_52">
     <path d="M 400.360625 108.807187 
L 420.360625 108.807187 
" style="fill:none;stroke:#8c564b;stroke-linecap:square;stroke-width:1.5;"/>
    </g>
    <g id="line2d_53"/>
    <g id="text_24">
     <!-- v2.2.0 -->
     <g transform="translate(428.360625 112.307187)scale(0.1 -0.1)">
      <use xlink:href="#DejaVuSans-76"/>
      <use x="59.179688" xlink:href="#DejaVuSans-32"/>
      <use x="122.802734" xlink:href="#DejaVuSans-2e"/>
      <use x="154.589844" xlink:href="#DejaVuSans-32"/>
      <use x="218.212891" xlink:href="#DejaVuSans-2e"/>
      <use x="250" xlink:href="#DejaVuSans-30"/>
     </g>
    </g>
    <g id="line2d_54">
     <path d="M 400.360625 123.485313 
L 420.360625 123.485313 
" style="fill:none;stroke:#e377c2;stroke-linecap:square;stroke-width:1.5;"/>
    </g>
    <g id="line2d_55"/>
    <g id="text_25">
     <!-- v2.2.1 -->
     <g transform="translate(428.360625 126.985313)scale(0.1 -0.1)">
      <use xlink:href="#DejaVuSans-76"/>
      <use x="59.179688" xlink:href="#DejaVuSans-32"/>
      <use x="122.802734" xlink:href="#DejaVuSans-2e"/>
      <use x="154.589844" xlink:href="#DejaVuSans-32"/>
      <use x="218.212891" xlink:href="#DejaVuSans-2e"/>
      <use x="250" xlink:href="#DejaVuSans-31"/>
     </g>
    </g>
    <g id="line2d_56">
     <path d="M 400.360625 138.163437 
L 420.360625 138.163437 
" style="fill:none;stroke:#7f7f7f;stroke-linecap:square;stroke-width:1.5;"/>
    </g>
    <g id="line2d_57"/>
    <g id="text_26">
     <!-- v2.3.0 -->
     <g transform="translate(428.360625 141.663437)scale(0.1 -0.1)">
      <use xlink:href="#DejaVuSans-76"/>
      <use x="59.179688" xlink:href="#DejaVuSans-32"/>
      <use x="122.802734" xlink:href="#DejaVuSans-2e"/>
      <use x="154.589844" xlink:href="#DejaVuSans-33"/>
      <use x="218.212891" xlink:href="#DejaVuSans-2e"/>
      <use x="250" xlink:href="#DejaVuSans-30"/>
     </g>
    </g>
    <g id="line2d_58">
     <path d="M 400.360625 152.841563 
L 420.360625 152.841563 
" style="fill:none;stroke:#bcbd22;stroke-linecap:square;stroke-width:1.5;"/>
    </g>
    <g id="line2d_59"/>
    <g id="text_27">
     <!-- v2.3.0-S1 -->
     <defs>
      <path d="M 4.890625 31.390625 
L 31.203125 31.390625 
L 31.203125 23.390625 
L 4.890625 23.390625 
z
" id="DejaVuSans-2d"/>
      <path d="M 53.515625 70.515625 
L 53.515625 60.890625 
Q 47.90625 63.578125 42.921875 64.890625 
Q 37.9375 66.21875 33.296875 66.21875 
Q 25.25 66.21875 20.875 63.09375 
Q 16.5 59.96875 16.5 54.203125 
Q 16.5 49.359375 19.40625 46.890625 
Q 22.3125 44.4375 30.421875 42.921875 
L 36.375 41.703125 
Q 47.40625 39.59375 52.65625 34.296875 
Q 57.90625 29 57.90625 20.125 
Q 57.90625 9.515625 50.796875 4.046875 
Q 43.703125 -1.421875 29.984375 -1.421875 
Q 24.8125 -1.421875 18.96875 -0.25 
Q 13.140625 0.921875 6.890625 3.21875 
L 6.890625 13.375 
Q 12.890625 10.015625 18.65625 8.296875 
Q 24.421875 6.59375 29.984375 6.59375 
Q 38.421875 6.59375 43.015625 9.90625 
Q 47.609375 13.234375 47.609375 19.390625 
Q 47.609375 24.75 44.3125 27.78125 
Q 41.015625 30.8125 33.5 32.328125 
L 27.484375 33.5 
Q 16.453125 35.6875 11.515625 40.375 
Q 6.59375 45.0625 6.59375 53.421875 
Q 6.59375 63.09375 13.40625 68.65625 
Q 20.21875 74.21875 32.171875 74.21875 
Q 37.3125 74.21875 42.625 73.28125 
Q 47.953125 72.359375 53.515625 70.515625 
z
" id="DejaVuSans-53"/>
     </defs>
     <g transform="translate(428.360625 156.341563)scale(0.1 -0.1)">
      <use xlink:href="#DejaVuSans-76"/>
      <use x="59.179688" xlink:href="#DejaVuSans-32"/>
      <use x="122.802734" xlink:href="#DejaVuSans-2e"/>
      <use x="154.589844" xlink:href="#DejaVuSans-33"/>
      <use x="218.212891" xlink:href="#DejaVuSans-2e"/>
      <use x="250" xlink:href="#DejaVuSans-30"/>
      <use x="313.623047" xlink:href="#DejaVuSans-2d"/>
      <use x="349.707031" xlink:href="#DejaVuSans-53"/>
      <use x="413.183594" xlink:href="#DejaVuSans-31"/>
     </g>
    </g>
    <g id="line2d_60">
     <path d="M 400.360625 167.519687 
L 420.360625 167.519687 
" style="fill:none;stroke:#17becf;stroke-linecap:square;stroke-width:1.5;"/>
    </g>
    <g id="line2d_61"/>
    <g id="text_28">
     <!-- v2.3.1 -->
     <g transform="translate(428.360625 171.019687)scale(0.1 -0.1)">
      <use xlink:href="#DejaVuSans-76"/>
      <use x="59.179688" xlink:href="#DejaVuSans-32"/>
      <use x="122.802734" xlink:href="#DejaVuSans-2e"/>
      <use x="154.589844" xlink:href="#DejaVuSans-33"/>
      <use x="218.212891" xlink:href="#DejaVuSans-2e"/>
      <use x="250" xlink:href="#DejaVuSans-31"/>
     </g>
    </g>
    <g id="line2d_62">
     <path d="M 400.360625 182.197812 
L 420.360625 182.197812 
" style="fill:none;stroke:#1f77b4;stroke-linecap:square;stroke-width:1.5;"/>
    </g>
    <g id="line2d_63"/>
    <g id="text_29">
     <!-- v2.3.1-S1 -->
     <g transform="translate(428.360625 185.697812)scale(0.1 -0.1)">
      <use xlink:href="#DejaVuSans-76"/>
      <use x="59.179688" xlink:href="#DejaVuSans-32"/>
      <use x="122.802734" xlink:href="#DejaVuSans-2e"/>
      <use x="154.589844" xlink:href="#DejaVuSans-33"/>
      <use x="218.212891" xlink:href="#DejaVuSans-2e"/>
      <use x="250" xlink:href="#DejaVuSans-31"/>
      <use x="313.623047" xlink:href="#DejaVuSans-2d"/>
      <use x="349.707031" xlink:href="#DejaVuSans-53"/>
      <use x="413.183594" xlink:href="#DejaVuSans-31"/>
     </g>
    </g>
   </g>
  </g>
 </g>
 <defs>
  <clipPath id="p716e700ad7">
   <rect height="266.112" width="357.12" x="34.240625" y="22.318125"/>
  </clipPath>
 </defs>
</svg>
